<?xml version="1.0" standalone="no"?>
<!DOCTYPE svg PUBLIC "-//W3C//DTD SVG 20010904//EN"
 "http://www.w3.org/TR/2001/REC-SVG-20010904/DTD/svg10.dtd">
<svg version="1.0" xmlns="http://www.w3.org/2000/svg"
 width="576.000000pt" height="576.000000pt" viewBox="0 0 576.000000 576.000000"
 preserveAspectRatio="xMidYMid meet">
<metadata>
Created by potrace 1.11, written by Peter Selinger 2001-2013
</metadata>
<g transform="translate(0.000000,576.000000) scale(0.100000,-0.100000)"
fill="#000000" stroke="none">
<path d="M4189 5436 c-2 -2 -27 -6 -56 -10 -140 -16 -288 -60 -428 -127 -79
-37 -209 -117 -256 -157 -13 -11 -47 -40 -75 -64 -114 -95 -241 -258 -321
-408 -27 -52 -83 -176 -83 -186 0 -2 118 -4 263 -4 l262 0 28 44 c129 205 364
365 612 417 73 15 270 19 334 7 25 -5 57 -11 71 -14 152 -29 353 -145 476
-275 64 -68 144 -187 174 -259 13 -30 27 -59 31 -65 4 -5 17 -53 30 -105 24
-99 32 -284 17 -380 -17 -107 -94 -316 -120 -328 -5 -2 -8 -8 -8 -14 0 -36
-154 -206 -250 -277 -166 -122 -336 -181 -540 -186 -132 -3 -231 12 -345 52
l-80 28 -174 -174 c-200 -200 -195 -175 -45 -247 201 -95 367 -136 576 -139
81 -1 173 2 205 7 32 4 73 11 92 13 55 8 181 43 241 66 209 80 360 178 520
339 221 220 353 483 404 805 14 87 15 348 2 405 -4 14 -8 39 -10 55 -9 65 -48
198 -85 290 -145 355 -431 640 -785 785 -93 38 -226 77 -291 86 -16 2 -41 6
-55 10 -28 6 -325 15 -331 10z"/>
<path d="M185 4151 c-72 -18 -117 -56 -156 -131 -43 -82 -32 -184 26 -255 18
-22 409 -416 869 -875 l836 -835 0 -627 0 -628 -300 -1 c-165 -1 -303 -2 -307
-3 -5 -1 -26 -5 -47 -10 -98 -19 -212 -108 -258 -202 -60 -118 -60 -232 -1
-255 39 -15 2454 -11 2474 4 39 30 45 79 22 177 -27 114 -148 237 -263 269
-72 19 -71 19 -382 20 l-298 1 0 627 0 626 856 856 c946 945 911 906 900 1017
-10 102 -62 175 -151 215 -38 18 -123 18 -1915 18 -1031 -1 -1888 -4 -1905 -8z"/>
</g>
</svg>
